<svg width="30" height="31" viewBox="0 0 50 51" fill="none" xmlns="http://www.w3.org/2000/svg">
    <path d="M43.916 15.0833C43.556 14.4596 43.0406 13.9399 42.4198 13.5747C41.7991 13.2096 41.0944 13.0116 40.3743 13H13.7077L12.4993 8.29167C12.3773 7.83716 12.1049 7.43738 11.7266 7.15744C11.3483 6.8775 10.8864 6.73389 10.416 6.75H6.24935C5.69681 6.75 5.16691 6.96949 4.77621 7.3602C4.38551 7.7509 4.16602 8.2808 4.16602 8.83333C4.16602 9.38587 4.38551 9.91577 4.77621 10.3065C5.16691 10.6972 5.69681 10.9167 6.24935 10.9167H8.83268L14.5827 32.2917C14.7048 32.7462 14.9771 33.146 15.3554 33.4259C15.7337 33.7058 16.1957 33.8494 16.666 33.8333H35.416C35.8007 33.8322 36.1776 33.7245 36.5049 33.5222C36.8322 33.32 37.0971 33.0311 37.2702 32.6875L44.1035 19.0208C44.3997 18.4 44.5376 17.7156 44.5049 17.0285C44.4721 16.3415 44.2698 15.6732 43.916 15.0833Z" fill="#fff" />
    <path d="M15.625 44.25C17.3509 44.25 18.75 42.8509 18.75 41.125C18.75 39.3991 17.3509 38 15.625 38C13.8991 38 12.5 39.3991 12.5 41.125C12.5 42.8509 13.8991 44.25 15.625 44.25Z" fill="#fff" />
    <path d="M36.459 44.25C38.1849 44.25 39.584 42.8509 39.584 41.125C39.584 39.3991 38.1849 38 36.459 38C34.7331 38 33.334 39.3991 33.334 41.125C33.334 42.8509 34.7331 44.25 36.459 44.25Z" fill="#fff" />
</svg>
