<svg width="30" height="31" viewBox="0 0 50 51" fill="none" xmlns="http://www.w3.org/2000/svg">
    <path d="M45.0684 14.3476C44.4139 12.8322 43.4701 11.4589 42.29 10.3047C41.109 9.14698 39.7166 8.22698 38.1885 7.5947C36.6039 6.93646 34.9043 6.59954 33.1885 6.60349C30.7812 6.60349 28.4326 7.26267 26.3916 8.50779C25.9033 8.80564 25.4395 9.13279 25 9.48923C24.5605 9.13279 24.0967 8.80564 23.6084 8.50779C21.5674 7.26267 19.2187 6.60349 16.8115 6.60349C15.0781 6.60349 13.3984 6.93552 11.8115 7.5947C10.2783 8.22947 8.89648 9.14255 7.70996 10.3047C6.5283 11.4576 5.58436 12.8312 4.93164 14.3476C4.25293 15.9248 3.90625 17.5996 3.90625 19.3232C3.90625 20.9492 4.23828 22.6435 4.89746 24.3672C5.44922 25.8076 6.24023 27.3017 7.25098 28.8105C8.85254 31.1982 11.0547 33.6885 13.7891 36.2129C18.3203 40.3974 22.8076 43.2881 22.998 43.4053L24.1553 44.1474C24.668 44.4746 25.3271 44.4746 25.8398 44.1474L26.9971 43.4053C27.1875 43.2832 31.6699 40.3974 36.2061 36.2129C38.9404 33.6885 41.1426 31.1982 42.7441 28.8105C43.7549 27.3017 44.5508 25.8076 45.0977 24.3672C45.7568 22.6435 46.0889 20.9492 46.0889 19.3232C46.0938 17.5996 45.7471 15.9248 45.0684 14.3476Z" fill="#fff" />
</svg>
