<svg width="30" height="31" viewBox="0 0 50 51" fill="none" xmlns="http://www.w3.org/2000/svg">
    <path d="M25.0008 15.3437C26.7005 15.3437 28.362 15.8478 29.7752 16.792C31.1884 17.7363 32.2899 19.0785 32.9404 20.6488C33.5908 22.2191 33.761 23.947 33.4294 25.614C33.0978 27.2811 32.2793 28.8123 31.0775 30.0142C29.8756 31.216 28.3443 32.0345 26.6773 32.3661C25.0103 32.6977 23.2824 32.5275 21.7121 31.8771C20.1418 31.2266 18.7996 30.1252 17.8553 28.7119C16.911 27.2987 16.407 25.6372 16.407 23.9375C16.407 21.6583 17.3124 19.4724 18.9241 17.8608C20.5357 16.2492 22.7216 15.3437 25.0008 15.3437ZM34.3758 13H37.5008V16.125C37.5008 16.5394 37.6654 16.9368 37.9584 17.2298C38.2514 17.5229 38.6489 17.6875 39.0633 17.6875C39.4777 17.6875 39.8751 17.5229 40.1681 17.2298C40.4611 16.9368 40.6258 16.5394 40.6258 16.125V13H43.7508C44.1652 13 44.5626 12.8354 44.8556 12.5423C45.1486 12.2493 45.3133 11.8519 45.3133 11.4375C45.3133 11.0231 45.1486 10.6257 44.8556 10.3326C44.5626 10.0396 44.1652 9.87499 43.7508 9.87499H40.6258V6.74999C40.6258 6.33559 40.4611 5.93816 40.1681 5.64514C39.8751 5.35211 39.4777 5.18749 39.0633 5.18749C38.6489 5.18749 38.2514 5.35211 37.9584 5.64514C37.6654 5.93816 37.5008 6.33559 37.5008 6.74999V9.87499H34.3758C33.9614 9.87499 33.5639 10.0396 33.2709 10.3326C32.9779 10.6257 32.8133 11.0231 32.8133 11.4375C32.8133 11.8519 32.9779 12.2493 33.2709 12.5423C33.5639 12.8354 33.9614 13 34.3758 13ZM43.282 21.0078C43.0784 21.0363 42.8825 21.1053 42.7059 21.2106C42.5293 21.3159 42.3755 21.4554 42.2536 21.621C42.1317 21.7866 42.0441 21.9749 41.996 22.1748C41.9479 22.3747 41.9402 22.5822 41.9734 22.7851C42.1136 23.6834 42.1854 24.5909 42.1883 25.5C42.194 29.7058 40.6504 33.7663 37.8523 36.9062C36.5875 35.0919 34.9577 33.5619 33.0672 32.4141C30.8966 34.4936 28.0067 35.6544 25.0008 35.6544C21.9948 35.6544 19.105 34.4936 16.9344 32.4141C15.0439 33.5619 13.414 35.0919 12.1492 36.9062C9.95157 34.4291 8.51634 31.3697 8.01613 28.0962C7.51591 24.8227 7.972 21.4744 9.32955 18.454C10.6871 15.4335 12.8883 12.8696 15.6684 11.0704C18.4486 9.27128 21.6893 8.31358 25.0008 8.31249C25.9098 8.31533 26.8174 8.38715 27.7156 8.52733C28.1206 8.58284 28.5312 8.47741 28.8594 8.23366C29.1876 7.98992 29.4072 7.62727 29.4711 7.2235C29.535 6.81973 29.4381 6.407 29.2012 6.07385C28.9643 5.74069 28.6063 5.51364 28.2039 5.4414C27.145 5.26875 26.0736 5.18383 25.0008 5.18749C20.9079 5.18891 16.9108 6.42675 13.5335 8.7388C10.1562 11.0508 7.55606 14.3292 6.07392 18.1444C4.59178 21.9595 4.29675 26.1334 5.22748 30.1191C6.15822 34.1048 8.2713 37.7163 11.2898 40.4805L11.5437 40.7148C15.2571 43.9991 20.0434 45.812 25.0008 45.812C29.9582 45.812 34.7444 43.9991 38.4578 40.7148L38.7117 40.4805C40.794 38.5803 42.4567 36.2665 43.5934 33.6869C44.7302 31.1074 45.316 28.3189 45.3133 25.5C45.3169 24.4271 45.232 23.3558 45.0594 22.2969C45.0285 22.095 44.9579 21.9012 44.8515 21.7268C44.7452 21.5525 44.6053 21.4009 44.44 21.281C44.2747 21.1611 44.0872 21.0752 43.8884 21.0283C43.6896 20.9814 43.4835 20.9744 43.282 21.0078Z" fill="#fff" />
</svg>
